<svg width="640" height="360" viewBox="0 0 640 360" fill="none" xmlns="http://www.w3.org/2000/svg">
  <defs>
    <linearGradient id="paint0_linear" x1="80" y1="24" x2="560" y2="336" gradientUnits="userSpaceOnUse">
      <stop stop-color="#1EC8E5" stop-opacity="0.9" />
      <stop offset="0.4" stop-color="#6A5BFF" stop-opacity="0.85" />
      <stop offset="1" stop-color="#F45DF0" stop-opacity="0.9" />
    </linearGradient>
    <linearGradient id="paint1_linear" x1="180" y1="90" x2="420" y2="300" gradientUnits="userSpaceOnUse">
      <stop stop-color="#FFFFFF" stop-opacity="0.88" />
      <stop offset="1" stop-color="#C7E9FF" stop-opacity="0.6" />
    </linearGradient>
    <filter id="glow" x="50" y="24" width="540" height="312" filterUnits="userSpaceOnUse" color-interpolation-filters="sRGB">
      <feGaussianBlur stdDeviation="28" result="blur" />
    </filter>
  </defs>
  <rect x="60" y="44" width="520" height="272" rx="44" fill="url(#paint0_linear)" opacity="0.45" />
  <rect x="60" y="44" width="520" height="272" rx="44" fill="url(#paint0_linear)" filter="url(#glow)" opacity="0.65" />
  <rect x="92" y="72" width="456" height="216" rx="36" fill="#0B1022" opacity="0.62" />
  <rect x="120" y="96" width="400" height="184" rx="32" fill="url(#paint1_linear)" />
  <circle cx="192" cy="188" r="64" fill="#0F1329" opacity="0.08" />
  <circle cx="192" cy="188" r="48" fill="#0F1329" opacity="0.08" />
  <circle cx="192" cy="188" r="36" fill="#F9E15D" />
  <circle cx="192" cy="188" r="28" fill="#FFFAE1" />
  <path d="M192 158c16 0 28 10 28 30s-12 30-28 30-28-10-28-30 12-30 28-30Zm-10 18v24h12c8 0 14-4 14-12s-6-12-14-12h-12Z" fill="#E89F2E" />
  <rect x="250" y="132" width="220" height="28" rx="14" fill="#0F1329" opacity="0.06" />
  <rect x="250" y="174" width="186" height="20" rx="10" fill="#0F1329" opacity="0.06" />
  <rect x="250" y="206" width="160" height="20" rx="10" fill="#0F1329" opacity="0.06" />
  <circle cx="420" cy="212" r="44" fill="#6A5BFF" opacity="0.25" />
  <circle cx="420" cy="212" r="26" fill="#6A5BFF" opacity="0.6" />
  <path d="M418 192h4c2 0 3 .8 4 2.3l10 17.7c.5.9.5 1.9 0 2.8l-10 17.9c-.9 1.5-2 2.3-4 2.3h-4c-2 0-3-.8-4-2.3l-10-17.9c-.5-.9-.5-1.9 0-2.8l10-17.7c1-1.5 2-2.3 4-2.3Zm2 14c-3.9 0-7 3.1-7 7s3.1 7 7 7 7-3.1 7-7-3.1-7-7-7Z" fill="#FDFDFE" />
</svg>
