<?xml version="1.0" encoding="utf-8"?>
<!-- Generator: Adobe Illustrator 27.5.0, SVG Export Plug-In . SVG Version: 6.00 Build 0)  -->
<svg version="1.1" xmlns="http://www.w3.org/2000/svg" x="0px" y="0px"
     viewBox="0 0 499.999 500" style="enable-background:new 0 0 499.999 500;" xml:space="preserve">
<g id="BACKGROUND">
	<path style="fill:#C7C3FE;" d="M259.773,118.691h-19.546c-41.116,0-74.447,33.331-74.447,74.447v220.427H334.22V193.139
		C334.22,152.022,300.889,118.691,259.773,118.691z"/>
  <g>

			<ellipse transform="matrix(0.7071 -0.7071 0.7071 0.7071 -13.6721 212.7697)"
               style="fill:#FFFFFF;stroke:#1C1D62;stroke-width:2;stroke-linecap:round;stroke-miterlimit:10;" cx="250"
               cy="122.889" rx="15.124" ry="15.124"/>

    <line style="fill:#B9F3DD;stroke:#1C1D62;stroke-width:2;stroke-linecap:round;stroke-miterlimit:10;" x1="250" y1="0"
          x2="250" y2="111.222"/>
    <polygon style="fill:#7056F3;stroke:#1C1D62;stroke-width:2;stroke-linecap:round;stroke-miterlimit:10;" points="250,89.167
			189.9,120.049 310.099,120.049 		"/>
	</g>
  <g>
		<path style="fill:none;stroke:#C7C3FE;stroke-width:2;stroke-miterlimit:10;" d="M363.995,111.291h-25.034
			c-2.825,0-5.115-2.29-5.115-5.115l0,0c0-2.825,2.29-5.115,5.115-5.115h25.034c2.825,0,5.115,2.29,5.115,5.115l0,0
			C369.111,109.001,366.82,111.291,363.995,111.291z"/>
    <path style="fill:none;stroke:#C7C3FE;stroke-width:2;stroke-miterlimit:10;" d="M383.662,124.321h-25.034
			c-2.825,0-5.115-2.29-5.115-5.115l0,0c0-2.825,2.29-5.115,5.115-5.115h25.034c2.825,0,5.115,2.29,5.115,5.115l0,0
			C388.777,122.031,386.487,124.321,383.662,124.321z"/>
    <path style="fill:none;stroke:#C7C3FE;stroke-width:2;stroke-miterlimit:10;" d="M422.961,124.321h-25.034
			c-2.825,0-5.115-2.29-5.115-5.115l0,0c0-2.825,2.29-5.115,5.115-5.115h25.034c2.825,0,5.115,2.29,5.115,5.115l0,0
			C428.076,122.031,425.786,124.321,422.961,124.321z"/>
    <path style="fill:none;stroke:#C7C3FE;stroke-width:2;stroke-miterlimit:10;" d="M387.697,98.261h-25.034
			c-2.825,0-5.115-2.29-5.115-5.115l0,0c0-2.825,2.29-5.115,5.115-5.115h25.034c2.825,0,5.115,2.29,5.115,5.115l0,0
			C392.812,95.971,390.522,98.261,387.697,98.261z"/>
    <path style="fill:none;stroke:#C7C3FE;stroke-width:2;stroke-miterlimit:10;" d="M352.214,137.351h-7.402
			c-2.825,0-5.115-2.29-5.115-5.115v0c0-2.825,2.29-5.115,5.115-5.115h7.402c2.825,0,5.115,2.29,5.115,5.115v0
			C357.329,135.061,355.039,137.351,352.214,137.351z"/>
	</g>
  <g>
		<path style="fill:none;stroke:#C7C3FE;stroke-width:2;stroke-miterlimit:10;" d="M412.37,367.238h25.034
			c2.825,0,5.115,2.29,5.115,5.115l0,0c0,2.825-2.29,5.115-5.115,5.115H412.37c-2.825,0-5.115-2.29-5.115-5.115l0,0
			C407.255,369.528,409.546,367.238,412.37,367.238z"/>
    <path style="fill:none;stroke:#C7C3FE;stroke-width:2;stroke-miterlimit:10;" d="M392.704,354.208h25.034
			c2.825,0,5.115,2.29,5.115,5.115l0,0c0,2.825-2.29,5.115-5.115,5.115h-25.034c-2.825,0-5.115-2.29-5.115-5.115l0,0
			C387.589,356.498,389.879,354.208,392.704,354.208z"/>
    <path style="fill:none;stroke:#C7C3FE;stroke-width:2;stroke-miterlimit:10;" d="M424.152,341.178h7.402
			c2.825,0,5.115,2.29,5.115,5.115l0,0c0,2.825-2.29,5.115-5.115,5.115h-7.402c-2.825,0-5.115-2.29-5.115-5.115l0,0
			C419.037,343.468,421.327,341.178,424.152,341.178z"/>
    <path style="fill:none;stroke:#C7C3FE;stroke-width:2;stroke-miterlimit:10;" d="M438.818,387.47h7.402
			c2.825,0,5.115,2.29,5.115,5.115v0c0,2.825-2.29,5.115-5.115,5.115h-7.402c-2.825,0-5.115-2.29-5.115-5.115v0
			C433.703,389.76,435.993,387.47,438.818,387.47z"/>
    <path style="fill:none;stroke:#C7C3FE;stroke-width:2;stroke-miterlimit:10;" d="M459.721,387.47h7.402
			c2.825,0,5.115,2.29,5.115,5.115v0c0,2.825-2.29,5.115-5.115,5.115h-7.402c-2.825,0-5.115-2.29-5.115-5.115v0
			C454.607,389.76,456.897,387.47,459.721,387.47z"/>
    <path style="fill:none;stroke:#C7C3FE;stroke-width:2;stroke-miterlimit:10;" d="M449.388,400.526h7.402
			c2.825,0,5.115,2.29,5.115,5.115l0,0c0,2.825-2.29,5.115-5.115,5.115h-7.402c-2.825,0-5.115-2.29-5.115-5.115l0,0
			C444.273,402.816,446.563,400.526,449.388,400.526z"/>
	</g>
  <g>
		<path style="fill:none;stroke:#C7C3FE;stroke-width:2;stroke-miterlimit:10;" d="M63.034,362.937H38
			c-2.825,0-5.115-2.29-5.115-5.115l0,0c0-2.825,2.29-5.115,5.115-5.115h25.034c2.825,0,5.115,2.29,5.115,5.115l0,0
			C68.149,360.647,65.859,362.937,63.034,362.937z"/>
    <path style="fill:none;stroke:#C7C3FE;stroke-width:2;stroke-miterlimit:10;" d="M82.701,375.967H57.667
			c-2.825,0-5.115-2.29-5.115-5.115v0c0-2.825,2.29-5.115,5.115-5.115h25.034c2.825,0,5.115,2.29,5.115,5.115v0
			C87.816,373.677,85.526,375.967,82.701,375.967z"/>
    <path style="fill:none;stroke:#C7C3FE;stroke-width:2;stroke-miterlimit:10;" d="M51.253,388.997h-7.402
			c-2.825,0-5.115-2.29-5.115-5.115l0,0c0-2.825,2.29-5.115,5.115-5.115h7.402c2.825,0,5.115,2.29,5.115,5.115l0,0
			C56.368,386.707,54.078,388.997,51.253,388.997z"/>
    <path style="fill:none;stroke:#C7C3FE;stroke-width:2;stroke-miterlimit:10;" d="M91.88,349.204h-7.402
			c-2.825,0-5.115-2.29-5.115-5.115l0,0c0-2.825,2.29-5.115,5.115-5.115h7.402c2.825,0,5.115,2.29,5.115,5.115l0,0
			C96.995,346.914,94.705,349.204,91.88,349.204z"/>
    <path style="fill:none;stroke:#C7C3FE;stroke-width:2;stroke-miterlimit:10;" d="M112.476,349.204h-7.402
			c-2.825,0-5.115-2.29-5.115-5.115l0,0c0-2.825,2.29-5.115,5.115-5.115h7.402c2.825,0,5.115,2.29,5.115,5.115l0,0
			C117.591,346.914,115.301,349.204,112.476,349.204z"/>
    <path style="fill:none;stroke:#C7C3FE;stroke-width:2;stroke-miterlimit:10;" d="M102.853,336.877h-7.402
			c-2.825,0-5.115-2.29-5.115-5.115l0,0c0-2.825,2.29-5.115,5.115-5.115h7.402c2.825,0,5.115,2.29,5.115,5.115l0,0
			C107.968,334.587,105.678,336.877,102.853,336.877z"/>
	</g>
  <g>
		<path style="fill:none;stroke:#C7C3FE;stroke-width:2;stroke-miterlimit:10;" d="M141.018,82.618h-25.034
			c-2.825,0-5.115-2.29-5.115-5.115l0,0c0-2.825,2.29-5.115,5.115-5.115h25.034c2.825,0,5.115,2.29,5.115,5.115l0,0
			C146.133,80.328,143.843,82.618,141.018,82.618z"/>
    <path style="fill:none;stroke:#C7C3FE;stroke-width:2;stroke-miterlimit:10;" d="M114.803,95.191H89.769
			c-2.825,0-5.115-2.29-5.115-5.115l0,0c0-2.825,2.29-5.115,5.115-5.115h25.034c2.825,0,5.115,2.29,5.115,5.115l0,0
			C119.918,92.901,117.628,95.191,114.803,95.191z"/>
    <path style="fill:none;stroke:#C7C3FE;stroke-width:2;stroke-miterlimit:10;" d="M114.803,69.841h-7.402
			c-2.825,0-5.115-2.29-5.115-5.115l0,0c0-2.825,2.29-5.115,5.115-5.115h7.402c2.825,0,5.115,2.29,5.115,5.115l0,0
			C119.918,67.551,117.628,69.841,114.803,69.841z"/>
	</g>
  <g>
		<path style="fill:none;stroke:#C7C3FE;stroke-width:2;stroke-miterlimit:10;" d="M116.323,240.019H91.29
			c-2.825,0-5.115-2.29-5.115-5.115l0,0c0-2.825,2.29-5.115,5.115-5.115h25.034c2.825,0,5.115,2.29,5.115,5.115l0,0
			C121.438,237.729,119.148,240.019,116.323,240.019z"/>
    <path style="fill:none;stroke:#C7C3FE;stroke-width:2;stroke-miterlimit:10;" d="M134.762,253.421h-25.034
			c-2.825,0-5.115-2.29-5.115-5.115l0,0c0-2.825,2.29-5.115,5.115-5.115h25.034c2.825,0,5.115,2.29,5.115,5.115l0,0
			C139.877,251.131,137.587,253.421,134.762,253.421z"/>
    <path style="fill:none;stroke:#C7C3FE;stroke-width:2;stroke-miterlimit:10;" d="M130.108,267.682h-25.034
			c-2.825,0-5.115-2.29-5.115-5.115l0,0c0-2.825,2.29-5.115,5.115-5.115h25.034c2.825,0,5.115,2.29,5.115,5.115l0,0
			C135.223,265.392,132.933,267.682,130.108,267.682z"/>
    <path style="fill:none;stroke:#C7C3FE;stroke-width:2;stroke-miterlimit:10;" d="M94.844,253.421H69.81
			c-2.825,0-5.115-2.29-5.115-5.115l0,0c0-2.825,2.29-5.115,5.115-5.115h25.034c2.825,0,5.115,2.29,5.115,5.115l0,0
			C99.959,251.131,97.669,253.421,94.844,253.421z"/>
    <path style="fill:none;stroke:#C7C3FE;stroke-width:2;stroke-miterlimit:10;" d="M134.762,227.913h-7.402
			c-2.825,0-5.115-2.29-5.115-5.115l0,0c0-2.825,2.29-5.115,5.115-5.115h7.402c2.825,0,5.115,2.29,5.115,5.115l0,0
			C139.877,225.623,137.587,227.913,134.762,227.913z"/>
	</g>
  <g>
		<path style="fill:none;stroke:#C7C3FE;stroke-width:2;stroke-miterlimit:10;" d="M382.229,247.58h25.034
			c2.825,0,5.115,2.29,5.115,5.115l0,0c0,2.825-2.29,5.115-5.115,5.115h-25.034c-2.825,0-5.115-2.29-5.115-5.115l0,0
			C377.114,249.87,379.404,247.58,382.229,247.58z"/>
    <path style="fill:none;stroke:#C7C3FE;stroke-width:2;stroke-miterlimit:10;" d="M393.765,205.656h25.034
			c2.825,0,5.115,2.29,5.115,5.115l0,0c0,2.825-2.29,5.115-5.115,5.115h-25.034c-2.825,0-5.115-2.29-5.115-5.115l0,0
			C388.65,207.946,390.94,205.656,393.765,205.656z"/>
    <path style="fill:none;stroke:#C7C3FE;stroke-width:2;stroke-miterlimit:10;" d="M352.52,205.656h25.034
			c2.825,0,5.115,2.29,5.115,5.115l0,0c0,2.825-2.29,5.115-5.115,5.115H352.52c-2.825,0-5.115-2.29-5.115-5.115l0,0
			C347.405,207.946,349.695,205.656,352.52,205.656z"/>
    <path style="fill:none;stroke:#C7C3FE;stroke-width:2;stroke-miterlimit:10;" d="M368.444,219.917h25.034
			c2.825,0,5.115,2.29,5.115,5.115v0c0,2.825-2.29,5.115-5.115,5.115h-25.034c-2.825,0-5.115-2.29-5.115-5.115v0
			C363.329,222.207,365.619,219.917,368.444,219.917z"/>
    <path style="fill:none;stroke:#C7C3FE;stroke-width:2;stroke-miterlimit:10;" d="M403.708,234.178h25.034
			c2.825,0,5.115,2.29,5.115,5.115l0,0c0,2.825-2.29,5.115-5.115,5.115h-25.034c-2.825,0-5.115-2.29-5.115-5.115l0,0
			C398.593,236.468,400.883,234.178,403.708,234.178z"/>
    <path style="fill:none;stroke:#C7C3FE;stroke-width:2;stroke-miterlimit:10;" d="M411.397,262.643h7.402
			c2.825,0,5.115,2.29,5.115,5.115l0,0c0,2.825-2.29,5.115-5.115,5.115h-7.402c-2.825,0-5.115-2.29-5.115-5.115l0,0
			C406.282,264.934,408.572,262.643,411.397,262.643z"/>
	</g>
</g>
  <g id="OBJECTS">
	<g>
		<g>
			<g>

					<ellipse transform="matrix(0.381 -0.9246 0.9246 0.381 -23.3197 394.8648)"
                   style="fill:#FFFFFF;stroke:#1C1D62;stroke-width:2;stroke-miterlimit:10;" cx="283.222" cy="214.847"
                   rx="7.431" ry="7.431"/>
        <path style="fill:#7056F3;" d="M287.842,213.311c0-1.9-1.54-3.441-3.441-3.441c-1.9,0-3.441,1.541-3.441,3.441
					c0,1.9,1.54,3.441,3.441,3.441C286.301,216.752,287.842,215.212,287.842,213.311z"/>
        <path style="fill:none;stroke:#7056F3;stroke-width:3;stroke-linecap:round;stroke-miterlimit:10;" d="M278.04,186.633
					c0,0,8.613,10.131,6.88,25.055"/>
			</g>
      <g>
				<g>
					<path style="fill:#FFFFFF;" d="M282.985,219.874c0-8.323-0.135-45.907-21.408-45.907c-21.273,0-29.136,18.92-29.136,45.907
						c0,1.345,0.031,2.779,0.103,4.272l-2.991,55.403l15.804,11.195l17.778-11.195l-1.008-18.679
						C286.973,260.398,282.985,228.136,282.985,219.874z"/>
          <path style="fill:#C7C3FE;" d="M271.411,177.458c-4.507-1.553-11.957-2.041-18.989-2.094
						c-12.911,4.326-18.718,18.401-19.791,37.59l1.921-1.721c0.584,0.195,9.888-8.506,9.624-17.075c0,0,24.946,5.586,29.906-9.603
						c0.359-1.098,1.206-1.668,1.41-2.39C274.322,180.35,272.972,178.751,271.411,177.458z"/>
          <path style="fill:#C7C3FE;" d="M259.012,282.146l4.123-2.596l-0.989-18.32c-5.876-1.775-13.019-4.514-16.789-8.13
						c-7.105-6.815-7.612-15.245-7.612-15.245s-2.482,12.325,2.128,18.751c4.61,6.426,6.527,14.215,4.303,21.225L259.012,282.146z"
          />
				</g>
        <g>
					<path style="fill:none;stroke:#1C1D62;stroke-width:2;stroke-miterlimit:10;" d="M282.985,219.874
						c0-8.323-0.135-45.907-21.408-45.907c-21.273,0-29.136,18.92-29.136,45.907c0,1.345,0.031,2.779,0.103,4.272l-2.991,55.403
						l15.804,11.195l17.778-11.195l-1.008-18.679C286.973,260.398,282.985,228.136,282.985,219.874z"/>
				</g>
			</g>
      <g>
				<path style="fill:#1C1D62;" d="M270.262,206.852c0-1.667-1.351-3.018-3.018-3.018c-1.667,0-3.018,1.351-3.018,3.018
					s1.351,3.018,3.018,3.018C268.911,209.871,270.262,208.519,270.262,206.852z"/>
        <path style="fill:#1C1D62;" d="M259.405,206.852c0-1.667-1.351-3.018-3.018-3.018c-1.667,0-3.018,1.351-3.018,3.018
					s1.351,3.018,3.018,3.018C258.054,209.871,259.405,208.519,259.405,206.852z"/>
        <path style="fill:none;stroke:#1C1D62;stroke-width:2;stroke-linecap:round;stroke-miterlimit:10;" d="M261.424,204.808
					c0,11.419,5.063,15.858,6.815,17.471c1.753,1.612,1.126,5.896-4.013,5.312l3.018,8.373c0,0-10.35,3.7-16.361-2.532"/>
        <path style="fill:none;stroke:#1C1D62;stroke-width:2;stroke-linecap:round;stroke-miterlimit:10;" d="M250.883,237.854
					c1.947,1.753,5.063,2.531,7.01,2.142"/>
			</g>
      <path style="fill:#1C1D62;" d="M232.441,211.948c0,0,10.808-14.02,8.471-24.665c0,0,8.049,5.193,27.262,3.635
				c19.213-1.558,35.288-32.454,15.047-37.128s-15.427,10.644-33.931,13.111c-18.504,2.467-47.913,23.446-17.155,70.227
				L232.441,211.948z"/>
      <g>

					<ellipse transform="matrix(0.7071 -0.7071 0.7071 0.7071 -83.8395 227.2882)"
                   style="fill:#FFFFFF;stroke:#1C1D62;stroke-width:2;stroke-miterlimit:10;" cx="232.441" cy="214.847"
                   rx="7.431" ry="7.431"/>
        <path style="fill:#7056F3;" d="M233.838,216.395c0-1.9-1.54-3.441-3.441-3.441c-1.9,0-3.441,1.54-3.441,3.441
					c0,1.9,1.54,3.441,3.441,3.441C232.298,219.836,233.838,218.296,233.838,216.395z"/>
        <path style="fill:none;stroke:#7056F3;stroke-width:3;stroke-linecap:round;stroke-miterlimit:10;" d="M230.397,215.583
					c-1.947-4.544-11.036-29.541-1.623-38.851"/>
			</g>
      <g>
				<path style="fill:none;stroke:#7056F3;stroke-width:3;stroke-linecap:round;stroke-miterlimit:10;" d="M271.679,246.219
					c12.008,6.101,26.483-0.13,13.472-23.941"/>
        <path style="fill:#1C1D62;" d="M274.016,246.123c0-1.9-1.54-3.441-3.441-3.441c-1.9,0-3.441,1.54-3.441,3.441
					c0,1.9,1.54,3.441,3.441,3.441C272.475,249.564,274.016,248.024,274.016,246.123z"/>
			</g>
		</g>
    <g>
			<path style="fill:#1C1D62;" d="M296.642,404.114H196.046l-9.347-110.225c0-11.097,8.996-20.092,20.093-20.092h79.104
				c11.097,0,20.092,8.996,20.092,20.092L296.642,404.114z"/>
      <g>
				<polygon style="fill:#FFFFFF;" points="246.344,274.811 265.123,284.286 265.085,268.344 227.602,268.344 227.541,284.286
					"/>
        <polygon style="fill:none;stroke:#1C1D62;stroke-width:2;stroke-miterlimit:10;" points="246.344,274.811 265.123,284.286
					265.085,268.344 227.602,268.344 227.541,284.286 				"/>
			</g>
      <g>
				<path style="fill:#FFFFFF;" d="M248.49,285.792c0-1.191-0.966-2.157-2.157-2.157c-1.191,0-2.157,0.966-2.157,2.157
					s0.966,2.157,2.157,2.157C247.524,287.949,248.49,286.984,248.49,285.792z"/>
        <path style="fill:#FFFFFF;" d="M248.49,295.865c0-1.191-0.966-2.157-2.157-2.157c-1.191,0-2.157,0.966-2.157,2.157
					c0,1.191,0.966,2.157,2.157,2.157C247.524,298.022,248.49,297.056,248.49,295.865z"/>
        <path style="fill:#FFFFFF;" d="M248.49,306.38c0-1.191-0.966-2.157-2.157-2.157c-1.191,0-2.157,0.966-2.157,2.157
					c0,1.191,0.966,2.157,2.157,2.157C247.524,308.537,248.49,307.571,248.49,306.38z"/>
			</g>
		</g>
    <g>
			<g>
				<path style="fill:#FFFFFF;" d="M206.134,277.932l-0.152-0.101c-4.702-3.131-11.053-1.857-14.184,2.845l-58.9,88.464
					c-3.131,4.703-1.857,11.053,2.845,14.184l0.152,0.101c4.702,3.131,11.053,1.857,14.184-2.845l58.9-88.464
					C212.11,287.413,210.836,281.063,206.134,277.932z"/>
        <path style="fill:#C7C3FE;" d="M179.639,330.628c-7.06,11.451-12.982,20.483-28.04,21.278c-3.208,0.169-6.295,1.283-9.172,2.923
					l-9.478,14.236c-3.159,4.744-1.874,11.151,2.871,14.31c4.744,3.159,11.151,1.874,14.31-2.871l47.994-72.083
					C192.676,314.028,184.195,323.238,179.639,330.628z"/>
        <path style="fill:none;stroke:#1C1D62;stroke-width:2;stroke-miterlimit:10;" d="M206.134,277.932l-0.152-0.101
					c-4.702-3.131-11.053-1.857-14.184,2.845l-58.9,88.464c-3.131,4.703-1.857,11.053,2.845,14.184l0.152,0.101
					c4.702,3.131,11.053,1.857,14.184-2.845l58.9-88.464C212.11,287.413,210.836,281.063,206.134,277.932z"/>
			</g>
      <g>
				<g>
					<path style="fill:#FFFFFF;"
                d="M220.531,363.444h11.424c0,0,2.207-13.371-4.024-18.044S225.246,357.602,220.531,363.444z"/>
          <path style="fill:none;stroke:#1C1D62;stroke-width:2;stroke-miterlimit:10;" d="M220.531,363.444h11.424
						c0,0,2.207-13.371-4.024-18.044S225.246,357.602,220.531,363.444z"/>
				</g>
        <path style="fill:#FFFFFF;" d="M147.552,357.822h81.279c9.127,0,16.526,7.399,16.526,16.526l0,0
					c0,9.127-7.399,16.526-16.526,16.526h-81.279c-9.127,0-16.526-7.399-16.526-16.526l0,0
					C131.026,365.221,138.425,357.822,147.552,357.822z"/>
        <path style="fill:#C7C3FE;" d="M147.552,390.874h81.279c6.699,0,12.455-3.994,15.049-9.724c-29.974,0-76.174,0-92.177,0
					c-13.901,0-16.176-10.061-15.269-19.004c-3.316,3.022-5.409,7.362-5.409,12.203l0,0
					C131.026,383.475,138.425,390.874,147.552,390.874z"/>
        <path style="fill:none;stroke:#1C1D62;stroke-width:2;stroke-miterlimit:10;" d="M147.552,357.822h81.279
					c9.127,0,16.526,7.399,16.526,16.526l0,0c0,9.127-7.399,16.526-16.526,16.526h-81.279c-9.127,0-16.526-7.399-16.526-16.526l0,0
					C131.026,365.221,138.425,357.822,147.552,357.822z"/>
        <g>

						<rect x="202.582" y="357.822" style="fill:none;stroke:#1C1D62;stroke-width:2;stroke-miterlimit:10;"
                  width="13.234" height="32.742"/>
          <circle style="fill:#1C1D62;" cx="209.2" cy="365.553" r="2.109"/>

          <line style="fill:none;stroke:#1C1D62;stroke-width:2;stroke-miterlimit:10;" x1="209.2" y1="374.193" x2="209.2"
                y2="390.874"/>
				</g>
			</g>
		</g>
    <g>
			<g>
				<path style="fill:#FFFFFF;" d="M287.713,277.932l0.152-0.101c4.703-3.131,11.053-1.857,14.184,2.845l58.9,88.464
					c3.131,4.703,1.857,11.053-2.846,14.184l-0.152,0.101c-4.702,3.131-11.053,1.857-14.184-2.845l-58.9-88.464
					C281.736,287.413,283.01,281.063,287.713,277.932z"/>
        <path style="fill:#C7C3FE;" d="M314.207,330.628c7.06,11.451,12.982,20.483,28.04,21.278c3.208,0.169,6.295,1.283,9.172,2.923
					l9.478,14.236c3.159,4.744,1.874,11.151-2.871,14.31c-4.744,3.159-11.151,1.874-14.31-2.871l-47.994-72.083
					C301.17,314.028,309.651,323.238,314.207,330.628z"/>
        <path style="fill:none;stroke:#1C1D62;stroke-width:2;stroke-miterlimit:10;" d="M287.713,277.932l0.152-0.101
					c4.703-3.131,11.053-1.857,14.184,2.845l58.9,88.464c3.131,4.703,1.857,11.053-2.846,14.184l-0.152,0.101
					c-4.702,3.131-11.053,1.857-14.184-2.845l-58.9-88.464C281.736,287.413,283.01,281.063,287.713,277.932z"/>
			</g>
      <g>
				<path style="fill:#FFFFFF;" d="M346.295,357.822h-81.279c-9.127,0-16.526,7.399-16.526,16.526l0,0
					c0,9.127,7.399,16.526,16.526,16.526h81.279c9.127,0,16.526-7.399,16.526-16.526l0,0
					C362.821,365.221,355.422,357.822,346.295,357.822z"/>
        <path style="fill:#C7C3FE;" d="M346.295,390.874h-81.279c-6.699,0-12.455-3.994-15.049-9.724c29.974,0,76.174,0,92.177,0
					c13.901,0,16.176-10.061,15.269-19.004c3.316,3.022,5.409,7.362,5.409,12.203l0,0
					C362.821,383.475,355.422,390.874,346.295,390.874z"/>
        <path style="fill:none;stroke:#1C1D62;stroke-width:2;stroke-miterlimit:10;" d="M346.295,357.822h-81.279
					c-9.127,0-16.526,7.399-16.526,16.526l0,0c0,9.127,7.399,16.526,16.526,16.526h81.279c9.127,0,16.526-7.399,16.526-16.526l0,0
					C362.821,365.221,355.422,357.822,346.295,357.822z"/>
        <g>

						<rect x="278.029" y="357.822" transform="matrix(-1 -1.224647e-16 1.224647e-16 -1 569.2934 748.3859)"
                  style="fill:none;stroke:#1C1D62;stroke-width:2;stroke-miterlimit:10;" width="13.234" height="32.742"/>
          <circle style="fill:#1C1D62;" cx="284.647" cy="365.553" r="2.109"/>

          <line style="fill:none;stroke:#1C1D62;stroke-width:2;stroke-miterlimit:10;" x1="284.647" y1="374.193"
                x2="284.647" y2="390.874"/>
				</g>
			</g>
		</g>
	</g>
    <g>
		<g>
			<rect x="92.833" y="390.564" style="fill:#7056F3;" width="314.333" height="36.275"/>

      <line style="fill:none;stroke:#1C1D62;stroke-width:2;stroke-miterlimit:10;" x1="92.833" y1="404.864" x2="290.093"
            y2="404.864"/>

      <line style="fill:none;stroke:#1C1D62;stroke-width:2;stroke-miterlimit:10;" x1="407.166" y1="410.306" x2="328.583"
            y2="410.306"/>

      <line style="fill:none;stroke:#1C1D62;stroke-width:2;stroke-miterlimit:10;" x1="373.529" y1="419.829" x2="212.075"
            y2="419.829"/>

      <line style="fill:none;stroke:#1C1D62;stroke-width:2;stroke-miterlimit:10;" x1="232.889" y1="410.306" x2="121.2"
            y2="410.306"/>

      <line style="fill:none;stroke:#1C1D62;stroke-width:2;stroke-miterlimit:10;" x1="407.166" y1="399.762" x2="359.696"
            y2="399.762"/>
		</g>
      <g>

				<rect x="258.324" y="387.5" style="fill:#F07AAB;stroke:#1C1D62;stroke-width:2;stroke-miterlimit:10;"
              width="114.423" height="6.258"/>
        <path style="fill:#F07AAB;stroke:#1C1D62;stroke-width:2;stroke-miterlimit:10;" d="M365.211,312.342h-99.351
				c-4.162,0-7.536,3.374-7.536,7.536v64.493h114.423v-64.493C372.747,315.716,369.374,312.342,365.211,312.342z"/>
        <g>
				<path style="fill:#FFFFFF;" d="M323.131,348.822c-0.601,0.168-1.221,0.286-1.872,0.286c-3.748-0.001-6.709-2.979-6.612-6.651
					c0.029-1.12,0.366-2.159,0.89-3.084c-4.021,0.238-7.296,3.471-7.401,7.464c-0.036,1.365,0.331,2.627,0.951,3.731
					c-1.716,1.651-2.81,3.923-2.876,6.433c-0.133,5.046,3.935,9.138,9.086,9.139c5.151,0.002,9.433-4.088,9.566-9.134
					c0.066-2.51-0.909-4.783-2.538-6.435C322.66,350.025,322.934,349.44,323.131,348.822z"/>
          <path style="fill:#FFFFFF;" d="M324.371,330.573L324.371,330.573c-4.211-0.001-7.713,3.342-7.822,7.468l0,0l0,0
					C320.761,338.043,324.263,334.699,324.371,330.573L324.371,330.573z"/>
			</g>
		</g>
      <g>
			<g>
				<path style="fill:#1C1D62;" d="M133.151,356.049v4.873c-6.815,0-17.94-4.135-17.94,12.339c0,16.474,11.126,12.339,17.94,12.339
					v4.873c-9.506,0-22.813,4.21-22.813-17.212S123.645,356.049,133.151,356.049z"/>
			</g>
        <path style="fill:#1C1D62;" d="M128.883,351.84h28.361c1.468,0,2.658,1.19,2.658,2.658v39.261h-33.677v-39.261
				C126.225,353.03,127.415,351.84,128.883,351.84z"/>
        <path style="fill:#F07AAB;" d="M135.19,335.992c-17.589,1.82-6.975-10.614,7.582-12.737c14.557-2.123,6.217-4.549,6.217-4.549
				c6.217,0.758,9.553,5.155,0,5.459c-9.553,0.303-16.983,6.52-10.424,6.823c6.558,0.303,20.584-1.668,21.493,2.275
				c0.91,3.942-10.766,4.246-17.286,5.004c-6.52,0.758-10.917,3.791-2.123,3.942c8.795,0.152,6.849,7.127,6.849,7.127
				c-2.4-6.672-15.795-2.881-16.25-7.582C130.792,337.054,152.779,334.173,135.19,335.992z"/>

        <rect x="155.878" y="355.065" transform="matrix(-1 -1.224647e-16 1.224647e-16 -1 313.7143 745.8726)"
              style="fill:#FFFFFF;" width="1.959" height="35.744"/>
		</g>
	</g>
    <g>

			<ellipse transform="matrix(0.9994 -0.0351 0.0351 0.9994 -4.9402 5.7803)"
               style="fill:#F07AAB;stroke:#1C1D62;stroke-width:2;stroke-miterlimit:10;" cx="162.162" cy="143.594"
               rx="50.054" ry="50.054"/>

      <line style="fill:#B9F3DD;stroke:#1C1D62;stroke-width:2;stroke-linecap:round;stroke-miterlimit:10;" x1="188.393"
            y1="186.236" x2="211.419" y2="203.834"/>
      <path style="fill:#FFFFFF;stroke:#1C1D62;stroke-width:2;stroke-miterlimit:10;" d="M182.682,153.132
			c-2.712-0.792-10.548-4.637-11.442-3.84c-0.895,0.796-4.694,4.181-4.694,4.181c-2.512-0.568-6.87-4.109-9.157-6.678
			c-2.287-2.567-5.304-7.303-5.58-9.865c0,0,3.801-3.386,4.695-4.182c0.895-0.796-2.024-9.022-2.499-11.806
			c-0.475-2.784-4.95-2.406-6.888-1.882c-1.94,0.525-10.238,14.733,5.295,32.17c15.535,17.436,30.605,10.827,31.35,8.961
			C184.502,158.327,185.393,153.924,182.682,153.132z"/>
	</g>
</g>
</svg>
