<svg width="160" height="160" viewBox="0 0 160 160" fill="none" xmlns="http://www.w3.org/2000/svg">
  <defs>
    <linearGradient id="coinGradient" x1="0%" y1="0%" x2="100%" y2="100%">
      <stop offset="0%" stop-color="#FFD65A" />
      <stop offset="100%" stop-color="#F7A501" />
    </linearGradient>
    <linearGradient id="coinShadow" x1="0%" y1="0%" x2="0%" y2="100%">
      <stop offset="0%" stop-color="#FFFFFF" stop-opacity="0.6" />
      <stop offset="100%" stop-color="#FFFFFF" stop-opacity="0" />
    </linearGradient>
  </defs>
  <circle cx="80" cy="80" r="70" fill="url(#coinGradient)" />
  <circle cx="80" cy="80" r="55" fill="none" stroke="#FFEAAC" stroke-width="6" />
  <path d="M60 52H100C108 52 114 58 114 66C114 74 108 80 100 80H86V108H74V80H60V68H74V64H60V52ZM86 68H100C102.21 68 104 66.21 104 64C104 61.79 102.21 60 100 60H74V68H86Z" fill="#9B5B00" />
  <circle cx="60" cy="52" r="20" fill="url(#coinShadow)" />
</svg>
